<svg xmlns="http://www.w3.org/2000/svg" viewBox="0 0 389.33 315.99"><defs><style>.cls-1{stroke:#000;stroke-miterlimit:10;}.cls-2{fill:#939393;}</style></defs><title>Asset 1mdpi</title><g id="Layer_2" data-name="Layer 2"><g id="Layer_3" data-name="Layer 3"><g id="Layer_6" data-name="Layer 6"><path class="cls-1" d="M316.22,71.21s26.53,21.57,34.34,21,18.62-16.82,24.63-13.82,15,34.25,12,39.65-24,11.42-24,11.42H333.73l-1.42-11.89H377.4S389,169,381.22,172.34s-9.86-7.46-22.83-5.66-32.88,28.57-32.88,28.57l-7-52.9-2.33-68Z"/></g><g id="Layer_5" data-name="Layer 5"><path class="cls-1" d="M82.63,226.27S.5,169.51.5,150.88,73.17,76.11,73.17,76.11l9.46,81.36Z"/></g><path class="cls-1" d="M194.67.5c-79,0-143,62.54-143,139.69s64,139.69,143,139.69,143-62.54,143-139.69S273.64.5,194.67.5Zm0,239.13A103.35,103.35,0,1,1,298,136.28,103.35,103.35,0,0,1,194.67,239.63Z"/></g><g id="Layer_4" data-name="Layer 4"><path class="cls-1" d="M345.06,193.09c-9.19,11.2-56.06,72.39-96.92,80.81s-75.1,6-94.93,6c-35.45-6.61-76.32,12.8-78.1,16.22s-4,7.37,0,14.42c2.29,3.37,4,5.6,8.41,4.81,7.81-1.16,33-19.83,72.7-19.83,20.42-1.2,48.06,11.42,98.53,7.21s101.88-52.87,101.88-52.87,12.07-4.19,27.55-50.84C383.09,182.62,354.24,181.9,345.06,193.09Z"/><path class="cls-2" d="M338,111.06c0-9.1,2.63-18,14-21s23.06,4.54,24.95,13.19l12.3,56.51s-7.8,76.06-16.82,79.91-13.82,6-21.63,3-13.22-7.23-13.22-20.14,10.9-47.42,10.09-60.3C346.22,138.16,338,120.16,338,111.06Z"/><circle class="cls-1" cx="16.08" cy="151.19" r="11"/></g></g></svg>