<svg xmlns="http://www.w3.org/2000/svg" viewBox="0 0 657.25 589.53"><defs><style>.cls-1{fill:#b50b0b;}.cls-2{font-size:117.34px;stroke-width:6.42px;letter-spacing:0.11em;}.cls-2,.cls-3,.cls-4,.cls-5{fill:#fff;}.cls-2,.cls-3,.cls-4{stroke:#fff;stroke-miterlimit:10;font-family:AgencyFB-Reg, Agency FB;}.cls-3{font-size:109px;stroke-width:8.05px;letter-spacing:0.11em;}.cls-4{font-size:96.1px;stroke-width:5.99px;letter-spacing:0.11em;}</style></defs><title>Asset 1mdpi</title><g id="Layer_2" data-name="Layer 2"><g id="Layer_1-2" data-name="Layer 1"><rect class="cls-1" x="16" y="0.55" width="598" height="563"/><text></text></g><g id="Layer_4" data-name="Layer 4"><polygon points="613.42 102 614.12 443.38 541.88 443.49 541.55 207.64 613.42 102"/><polygon points="90.22 206.94 89.88 443.34 16.12 443.21 16.85 103.38 90.22 206.94"/></g><g id="Layer_2-2" data-name="Layer 2"><polygon points="364.95 563.12 364.81 348.46 613.42 0 614.12 121.38 448.07 370.73 448.2 563.08 364.95 563.12"/><polygon points="273.8 562.96 189.04 562.92 189.18 370.19 16.12 120.21 16.85 0.38 273.95 346.68 273.8 562.96"/></g><g id="Layer_3" data-name="Layer 3"><text class="cls-2" transform="translate(162 440.04) scale(0.74 1)">OZ CONCRETE </text><text class="cls-3" transform="translate(9 563.68) scale(1.62 1)">PUMPING</text><text class="cls-2" transform="translate(14 440.04) scale(0.74 1)">MU</text><text class="cls-4" transform="translate(114 441.31) scale(0.95 1)">N</text><rect class="cls-5" x="116.5" y="347.05" width="35.5" height="10"/></g></g></svg>