<svg xmlns="http://www.w3.org/2000/svg" viewBox="0 0 454.16 262.69"><defs><style>.cls-1{fill:#fff;}.cls-2{fill:#ad0000;}.cls-3{fill:none;}</style></defs><title>Asset 1mdpi</title><g id="Layer_2" data-name="Layer 2"><g id="Layer_1-2" data-name="Layer 1"><ellipse cx="147.95" cy="221.69" rx="40.83" ry="41"/><ellipse cx="239.95" cy="221.69" rx="40.83" ry="41"/><path d="M367,1.19H142.7a10,10,0,0,0-10,10v146.5a1.5,1.5,0,0,1-1.5,1.5H97.08a1.5,1.5,0,0,1-1.5-1.5V2.27A2.26,2.26,0,0,0,91.81.58h0a2.29,2.29,0,0,0-.75,1.52l-5,65a2.26,2.26,0,0,1-2.23,2.09l-64.1.29c-2.19,0-9.47,8.2-9.47,8.2,0,1,1.72,2.88,2.34,3.61l64.52,77.45a1.52,1.52,0,0,1,.36,1l0,10.9-6.43-.46a1.5,1.5,0,0,0-1.5,1.5h0a1.5,1.5,0,0,1-1.5,1.5H52.54a1.5,1.5,0,0,1-1.5-1.5V112.11a1.49,1.49,0,0,0-.82-1.33l-10.44-5.27c-.39-.2,7.6-.27-1.26-.05S26,110.8,26,110.8a1.51,1.51,0,0,0-.91,1.38v58.74a4,4,0,0,1-1.95,3.44L20.32,176a4,4,0,0,0-1.94,3.43v21.73a4,4,0,0,0,4,4H89.63a1.5,1.5,0,0,1,1.5,1.5v15.5a4,4,0,0,0,4,4H376.8a1.53,1.53,0,0,0,.3,0L451,210.85a4,4,0,0,0,3.18-3.91V178.3a4,4,0,0,0-4.1-4l-70.83,1.85a1.5,1.5,0,0,1-1.54-1.49L377,11.15A10,10,0,0,0,367,1.19Z"/><rect x="102.66" y="40.69" width="25" height="30" rx="9" ry="9"/><path d="M101.66,159.19v-78s0-17,13.5-17,13.5,17,13.5,17v78Z"/><path class="cls-1" d="M296.2,226.83l-15.71-65a4.06,4.06,0,0,0-3.88-3.3h-161a4,4,0,0,0-3.82,3.05L92,228.7c-.43,1.49,1.6,3,3,3H94c.93,0,3.76-.65,4-1.61l16-56a4.06,4.06,0,0,1,3.79-3l154.27-1a4.08,4.08,0,0,1,3.91,3.33l14.14,54a2.32,2.32,0,0,0,1.11,1.52l.94.51C293.79,230.32,296.63,228.75,296.2,226.83Z"/><rect class="cls-1" x="161.29" y="67.69" width="39.35" height="44" rx="10" ry="10"/><ellipse class="cls-1" cx="236.64" cy="88.69" rx="7.05" ry="7"/><circle class="cls-1" cx="115.66" cy="54.69" r="7"/><polygon points="114.71 58.3 111.84 50.57 118.01 56.03 117.49 58.81 114.71 58.3"/><circle class="cls-1" cx="180.66" cy="55.69" r="7"/><polygon points="179.71 59.3 176.84 51.57 183.01 57.03 182.49 59.81 179.71 59.3"/><circle class="cls-2" cx="172.66" cy="88.69" r="8"/><ellipse class="cls-1" cx="239.63" cy="224.55" rx="24.04" ry="23.86"/><ellipse class="cls-1" cx="147.63" cy="224.55" rx="24.04" ry="23.86"/></g><g id="Layer_2-2" data-name="Layer 2"><polygon points="0 83.76 2.17 69.18 73.82 1.38 88.03 0.46 0 83.76"/></g><g id="Layer_3" data-name="Layer 3"><line class="cls-3" x1="71.98" y1="205.64" x2="71.98" y2="168.64"/><path class="cls-1" d="M132.65,111H102.38a2.72,2.72,0,0,1-2.72-2.72v-3.39a2.72,2.72,0,0,1,2.72-2.72h30.27Z"/><path class="cls-1" d="M132.65,145.63H102.46a2.81,2.81,0,0,1-2.8-2.8v-3.24a2.81,2.81,0,0,1,2.8-2.8h30.19Z"/><rect class="cls-1" x="68.43" y="168.64" width="8.98" height="39.1" rx="2.64" ry="2.64"/><rect class="cls-1" x="33.74" y="149.26" width="8.98" height="34.76" rx="2.64" ry="2.64" transform="translate(-128.4 204.87) rotate(-90)"/></g></g></svg>